<svg xmlns="http://www.w3.org/2000/svg" xmlns:xlink="http://www.w3.org/1999/xlink" viewBox="0 0 156.52 136.8">
  <defs>
    <style>
      .cls-1 {
        fill: #ff6b55;
      }

      .cls-2 {
        fill: url(#New_Gradient_Swatch_2);
      }

      .cls-3 {
        fill: #ff4292;
      }

      .cls-4 {
        fill: #ff8f35;
      }

      .cls-5 {
        fill: #ff6836;
      }
    </style>
    <linearGradient id="New_Gradient_Swatch_2" data-name="New Gradient Swatch 2" y1="68.4" x2="156.52" y2="68.4" gradientUnits="userSpaceOnUse">
      <stop offset="0" stop-color="#fff10a"/>
      <stop offset="0.02" stop-color="#ffe808"/>
      <stop offset="0.08" stop-color="#ffd504"/>
      <stop offset="0.14" stop-color="#ffca01"/>
      <stop offset="0.21" stop-color="#ffc600"/>
      <stop offset="0.44" stop-color="#ff8f35"/>
      <stop offset="0.69" stop-color="#ff6836"/>
      <stop offset="0.7" stop-color="#ff643f"/>
      <stop offset="0.77" stop-color="#ff5563"/>
      <stop offset="0.83" stop-color="#ff4b7d"/>
      <stop offset="0.89" stop-color="#ff448d"/>
      <stop offset="0.94" stop-color="#ff4292"/>
    </linearGradient>
  </defs>
  <g id="Layer_2" data-name="Layer 2">
    <g id="Front">
      <g>
        <g>
          <path class="cls-1" d="M102.83,76.6a6.06,6.06,0,0,0,8.54-.95l-9.49-7.59A6.07,6.07,0,0,0,102.83,76.6Z"/>
          <path class="cls-2" d="M138.77,33.12A76,76,0,0,0,.34,69c-1.86,20,3.94,36.28,17.21,48.28,11.78,10.64,29.2,17.35,50.41,19.43v.08H109.5L123.83,119H113.08L111,114.18l-2.1,4.81h-1.53a5.82,5.82,0,0,1-3.81-10l.17-.17a5.93,5.93,0,0,1,4.25-1.67h6.57l2.42,6.84,3.11-7.09a16.89,16.89,0,0,0,12.6-10l4.47-10.52L121.2,73.73v-1.3a15.75,15.75,0,0,0-5-11.5c.92-2.37,6.27-18.51-13.17-28.69l-2.11-1.1-.44,4c-3.33-2.46-10-5.86-19.89-4.19-10.1,1.69-14.6-.81-19.82-3.72-1.28-.7-2.59-1.44-4-2.14l-1.6-.77L54.51,26c-.14.36-3.24,8.73-.09,14.53.1.18.21.37.32.54-7.93-.51-20.43,1-28.27,13.63l-1.85,3,7.89-1.16A60.84,60.84,0,0,0,24.82,69.4a53,53,0,0,0-4.16,28.38A58,58,0,0,1,122.07,43l.45,2.41c2.28,11.45,10.23,15.18,16.5,16.29a26.93,26.93,0,0,0,10.7-.33l6.8-1.54V49.47Zm-4,0L124.66,30l-2.6-10.33A73.47,73.47,0,0,1,134.75,33.07ZM114.6,14.3l-11.9,1.56L94.22,5.56A72.75,72.75,0,0,1,114.6,14.3Zm-38.71-11q3.4,0,6.83.31c1.16.11,2.3.25,3.44.41L76,9.27,66.68,3.83A74.18,74.18,0,0,1,75.89,3.25ZM57,5.75,50.37,14,39.88,12.84A72.34,72.34,0,0,1,57,5.75ZM29.53,20c.63-.52,1.26-1,1.9-1.52L28.57,29a56,56,0,0,0-15.3,10.08A73.11,73.11,0,0,1,29.53,20Zm-26,49.27A73.28,73.28,0,0,1,5,60.37l10,.74a59.4,59.4,0,0,0-1.45,8.24c0,.28-.06.55-.08.83l-10,.64C3.49,70.32,3.52,69.82,3.57,69.31Zm-.29,4.78,9.91-.64a60.15,60.15,0,0,0,.17,7.72L3.71,83.71A64.43,64.43,0,0,1,3.28,74.09Zm.91,12.85,9.53-2.51A60.79,60.79,0,0,0,15.28,92L6.7,96A51.61,51.61,0,0,1,4.19,86.94Zm23.2,33.75a58.39,58.39,0,0,1-6.05-4.42l4.12-3.59c.5.66,1,1.31,1.53,1.95.84,1,1.72,2,2.61,3Zm2.79,1.68L31.91,120a60.93,60.93,0,0,0,9.86,7.75A76.1,76.1,0,0,1,30.18,122.37Zm.2-8.75L46.91,92.44l2.46-2.09a8.16,8.16,0,0,1,4.16-1.88l7.15-1,3.37-3.23a8.81,8.81,0,0,1,6.51-2.38,6.45,6.45,0,0,1,2.37.4l.27.17,3.12,2.32-.66-4.6L75,79.7h0a3.76,3.76,0,0,0-.5-.31,37.1,37.1,0,0,0-3.68-2,19.37,19.37,0,0,0-7-1.72L53,75.15l-.84,0A7.31,7.31,0,0,1,46.34,72,8.59,8.59,0,0,1,45,66.39a6.16,6.16,0,0,0,4.36,1.92l25,.35h.07c.23,0,5.74,0,8.88,6.74a16.22,16.22,0,0,1,1.19,9.51l-1.14,6.77.31.51a7.27,7.27,0,0,1,.93,5l-1.54,9,1.59,10.94a3.8,3.8,0,0,1-.29,2.08l-1.91,4.3-4.76.69-1.83-2.79-3.85.21-5-6-1.25,1.31a14,14,0,0,0-2.5,15.82A57.47,57.47,0,0,1,30.38,113.62Zm-2.64-42.8a54.81,54.81,0,0,1,10-15.39L41.24,52,31.39,53.4c9.69-11.85,24.51-9.33,28.69-8.32a11.22,11.22,0,0,0,1.24.33l.83-3.14s-.38-.11-1-.26a6.25,6.25,0,0,1-3.87-3c-1.71-3.13-.91-7.63-.27-10.08l2.18,1.19c5.51,3.07,10.72,6,21.94,4.08,12.72-2.14,19.13,5,19.39,5.33L103,42.36l.65-6c13.27,8.09,11,19.11,9.89,22.54L105.05,53l-1.86,2.66,9.42,6.57A12.49,12.49,0,0,1,118,72.43V75.3L131.6,86.18l-14.64,0,13.51,7.59-.82,1.94A13.63,13.63,0,0,1,117.34,104h-3.71l-.29-.09,0,.09H108a9,9,0,0,0-6.56,2.59l-.18.17a9.07,9.07,0,0,0,6,15.53h.2l-.05.11h7.18l-.06-.12h2.55l-9.11,11.31h-39l-1.51-.16a10.77,10.77,0,0,1-.54-12.82l3.65,4.3,3.59-.19,1.94,3,8.58-1.25,2.64-5.94a7,7,0,0,0,.53-3.86L86.3,106.16l1.45-8.45a10.55,10.55,0,0,0-1-6.65l.94-5.62A19.33,19.33,0,0,0,86.2,74c-3.17-6.84-8.42-8.27-10.75-8.55a19.34,19.34,0,0,1,2.48-5c2.63-.09,7.15.33,8.21,2.25L89,61.2c-2.49-4.53-11.09-4-12.06-3.88l-.73.06-.43.58a22.61,22.61,0,0,0-3.64,7.42l-22.77-.32a3,3,0,0,1-2.79-2.28,2.49,2.49,0,0,1,.14-.67,4.69,4.69,0,0,0,0-3.15l-1.63-4.29-2.72,8.27a12.62,12.62,0,0,0,1.32,11A10.6,10.6,0,0,0,52,78.35l.9,0L63.69,79a17.44,17.44,0,0,1,2.33.3,11.88,11.88,0,0,0-4.21,2.6l-2.63,2.51-6.12.88a11.45,11.45,0,0,0-5.8,2.63l-2.7,2.3L28.29,111c-.44-.58-.87-1.16-1.29-1.75A48.72,48.72,0,0,1,27.74,70.82ZM23.56,110l-4.67,4.07a52.53,52.53,0,0,1-4.68-5l6.42-3.84C21.53,106.86,22.51,108.47,23.56,110Zm-4.42-7.69-6.89,4.12A47.22,47.22,0,0,1,8,99l8.28-3.85A60.94,60.94,0,0,0,19.14,102.34Zm-3.44-44,0-.42-10-.74C6.29,55.05,7,53,7.7,50.92a26.8,26.8,0,0,1,1.82-2.73l9,2.54A59.78,59.78,0,0,0,15.7,58.33ZM20,47.77l-8.24-2.33a51.14,51.14,0,0,1,6.9-6.57l5.79,1.63A61.48,61.48,0,0,0,20,47.77Zm6.56-10.05L22,36.43A54.55,54.55,0,0,1,33.2,30.65,62.52,62.52,0,0,0,26.54,37.72ZM153.28,57.23l-4.27,1a23.55,23.55,0,0,1-9.43.3c-7.66-1.36-12.34-6-13.88-13.71l-.56-3.05-.2-.28A61.07,61.07,0,0,0,40.1,25.21h0a60.66,60.66,0,0,0-7.74,2.29l3.24-11.86,16.19,1.83L61.91,4.81l14,8.17L90.05,5.61l11.29,13.71,16.73-2.2L122,32.56,139,37.78l14.24,13.11Z"/>
          <path class="cls-3" d="M140.21,51a4.37,4.37,0,0,0,6.18-.19l-6.37-6A4.35,4.35,0,0,0,140.21,51Z"/>
          <path class="cls-4" d="M78.34,105.07l-.17-9.14a4.57,4.57,0,1,0,.17,9.14Z"/>
          <path class="cls-5" d="M120.79,98.89a1.22,1.22,0,1,0-1.22-1.21A1.21,1.21,0,0,0,120.79,98.89Z"/>
          <path class="cls-5" d="M112.12,98.89a1.22,1.22,0,1,0-1.22-1.21A1.21,1.21,0,0,0,112.12,98.89Z"/>
          <path class="cls-5" d="M116.73,94.27a1.22,1.22,0,1,0-1.22-1.22A1.22,1.22,0,0,0,116.73,94.27Z"/>
        </g>
        <g>
          <path d="M102.83,76.6a6.06,6.06,0,0,0,8.54-.95l-9.49-7.59A6.07,6.07,0,0,0,102.83,76.6Z"/>
          <path d="M138.77,33.12A76,76,0,0,0,.34,69c-1.86,20,3.94,36.28,17.21,48.28,11.78,10.64,29.2,17.35,50.41,19.43v.08H109.5L123.83,119H113.08L111,114.18l-2.1,4.81h-1.53a5.82,5.82,0,0,1-3.81-10l.17-.17a5.93,5.93,0,0,1,4.25-1.67h6.57l2.42,6.84,3.11-7.09a16.89,16.89,0,0,0,12.6-10l4.47-10.52L121.2,73.73v-1.3a15.75,15.75,0,0,0-5-11.5c.92-2.37,6.27-18.51-13.17-28.69l-2.11-1.1-.44,4c-3.33-2.46-10-5.86-19.89-4.19-10.1,1.69-14.6-.81-19.82-3.72-1.28-.7-2.59-1.44-4-2.14l-1.6-.77L54.51,26c-.14.36-3.24,8.73-.09,14.53.1.18.21.37.32.54-7.93-.51-20.43,1-28.27,13.63l-1.85,3,7.89-1.16A60.84,60.84,0,0,0,24.82,69.4a53,53,0,0,0-4.16,28.38A58,58,0,0,1,122.07,43l.45,2.41c2.28,11.45,10.23,15.18,16.5,16.29a26.93,26.93,0,0,0,10.7-.33l6.8-1.54V49.47Zm-4,0L124.66,30l-2.6-10.33A73.47,73.47,0,0,1,134.75,33.07ZM114.6,14.3l-11.9,1.56L94.22,5.56A72.75,72.75,0,0,1,114.6,14.3Zm-38.71-11q3.4,0,6.83.31c1.16.11,2.3.25,3.44.41L76,9.27,66.68,3.83A74.18,74.18,0,0,1,75.89,3.25ZM57,5.75,50.37,14,39.88,12.84A72.34,72.34,0,0,1,57,5.75ZM29.53,20c.63-.52,1.26-1,1.9-1.52L28.57,29a56,56,0,0,0-15.3,10.08A73.11,73.11,0,0,1,29.53,20Zm-26,49.27A73.28,73.28,0,0,1,5,60.37l10,.74a59.4,59.4,0,0,0-1.45,8.24c0,.28-.06.55-.08.83l-10,.64C3.49,70.32,3.52,69.82,3.57,69.31Zm-.29,4.78,9.91-.64a60.15,60.15,0,0,0,.17,7.72L3.71,83.71A64.43,64.43,0,0,1,3.28,74.09Zm.91,12.85,9.53-2.51A60.79,60.79,0,0,0,15.28,92L6.7,96A51.61,51.61,0,0,1,4.19,86.94Zm23.2,33.75a58.39,58.39,0,0,1-6.05-4.42l4.12-3.59c.5.66,1,1.31,1.53,1.95.84,1,1.72,2,2.61,3Zm2.79,1.68L31.91,120a60.93,60.93,0,0,0,9.86,7.75A76.1,76.1,0,0,1,30.18,122.37Zm.2-8.75L46.91,92.44l2.46-2.09a8.16,8.16,0,0,1,4.16-1.88l7.15-1,3.37-3.23a8.81,8.81,0,0,1,6.51-2.38,6.45,6.45,0,0,1,2.37.4l.27.17,3.12,2.32-.66-4.6L75,79.7h0a3.76,3.76,0,0,0-.5-.31,37.1,37.1,0,0,0-3.68-2,19.37,19.37,0,0,0-7-1.72L53,75.15l-.84,0A7.31,7.31,0,0,1,46.34,72,8.59,8.59,0,0,1,45,66.39a6.16,6.16,0,0,0,4.36,1.92l25,.35h.07c.23,0,5.74,0,8.88,6.74a16.22,16.22,0,0,1,1.19,9.51l-1.14,6.77.31.51a7.27,7.27,0,0,1,.93,5l-1.54,9,1.59,10.94a3.8,3.8,0,0,1-.29,2.08l-1.91,4.3-4.76.69-1.83-2.79-3.85.21-5-6-1.25,1.31a14,14,0,0,0-2.5,15.82A57.47,57.47,0,0,1,30.38,113.62Zm-2.64-42.8a54.81,54.81,0,0,1,10-15.39L41.24,52,31.39,53.4c9.69-11.85,24.51-9.33,28.69-8.32a11.22,11.22,0,0,0,1.24.33l.83-3.14s-.38-.11-1-.26a6.25,6.25,0,0,1-3.87-3c-1.71-3.13-.91-7.63-.27-10.08l2.18,1.19c5.51,3.07,10.72,6,21.94,4.08,12.72-2.14,19.13,5,19.39,5.33L103,42.36l.65-6c13.27,8.09,11,19.11,9.89,22.54L105.05,53l-1.86,2.66,9.42,6.57A12.49,12.49,0,0,1,118,72.43V75.3L131.6,86.18l-14.64,0,13.51,7.59-.82,1.94A13.63,13.63,0,0,1,117.34,104h-3.71l-.29-.09,0,.09H108a9,9,0,0,0-6.56,2.59l-.18.17a9.07,9.07,0,0,0,6,15.53h.2l-.05.11h7.18l-.06-.12h2.55l-9.11,11.31h-39l-1.51-.16a10.77,10.77,0,0,1-.54-12.82l3.65,4.3,3.59-.19,1.94,3,8.58-1.25,2.64-5.94a7,7,0,0,0,.53-3.86L86.3,106.16l1.45-8.45a10.55,10.55,0,0,0-1-6.65l.94-5.62A19.33,19.33,0,0,0,86.2,74c-3.17-6.84-8.42-8.27-10.75-8.55a19.34,19.34,0,0,1,2.48-5c2.63-.09,7.15.33,8.21,2.25L89,61.2c-2.49-4.53-11.09-4-12.06-3.88l-.73.06-.43.58a22.61,22.61,0,0,0-3.64,7.42l-22.77-.32a3,3,0,0,1-2.79-2.28,2.49,2.49,0,0,1,.14-.67,4.69,4.69,0,0,0,0-3.15l-1.63-4.29-2.72,8.27a12.62,12.62,0,0,0,1.32,11A10.6,10.6,0,0,0,52,78.35l.9,0L63.69,79a17.44,17.44,0,0,1,2.33.3,11.88,11.88,0,0,0-4.21,2.6l-2.63,2.51-6.12.88a11.45,11.45,0,0,0-5.8,2.63l-2.7,2.3L28.29,111c-.44-.58-.87-1.16-1.29-1.75A48.72,48.72,0,0,1,27.74,70.82ZM23.56,110l-4.67,4.07a52.53,52.53,0,0,1-4.68-5l6.42-3.84C21.53,106.86,22.51,108.47,23.56,110Zm-4.42-7.69-6.89,4.12A47.22,47.22,0,0,1,8,99l8.28-3.85A60.94,60.94,0,0,0,19.14,102.34Zm-3.44-44,0-.42-10-.74C6.29,55.05,7,53,7.7,50.92a26.8,26.8,0,0,1,1.82-2.73l9,2.54A59.78,59.78,0,0,0,15.7,58.33ZM20,47.77l-8.24-2.33a51.14,51.14,0,0,1,6.9-6.57l5.79,1.63A61.48,61.48,0,0,0,20,47.77Zm6.56-10.05L22,36.43A54.55,54.55,0,0,1,33.2,30.65,62.52,62.52,0,0,0,26.54,37.72ZM153.28,57.23l-4.27,1a23.55,23.55,0,0,1-9.43.3c-7.66-1.36-12.34-6-13.88-13.71l-.56-3.05-.2-.28A61.07,61.07,0,0,0,40.1,25.21h0a60.66,60.66,0,0,0-7.74,2.29l3.24-11.86,16.19,1.83L61.91,4.81l14,8.17L90.05,5.61l11.29,13.71,16.73-2.2L122,32.56,139,37.78l14.24,13.11Z"/>
          <path d="M140.21,51a4.37,4.37,0,0,0,6.18-.19l-6.37-6A4.35,4.35,0,0,0,140.21,51Z"/>
          <path d="M78.34,105.07l-.17-9.14a4.57,4.57,0,1,0,.17,9.14Z"/>
          <path d="M120.79,98.89a1.22,1.22,0,1,0-1.22-1.21A1.21,1.21,0,0,0,120.79,98.89Z"/>
          <path d="M112.12,98.89a1.22,1.22,0,1,0-1.22-1.21A1.21,1.21,0,0,0,112.12,98.89Z"/>
          <path d="M116.73,94.27a1.22,1.22,0,1,0-1.22-1.22A1.22,1.22,0,0,0,116.73,94.27Z"/>
        </g>
      </g>
    </g>
  </g>
</svg>
